<?xml version="1.0" encoding="UTF-8"?>
<svg width="660px" height="540px" viewBox="0 0 660 540" version="1.1" xmlns="http://www.w3.org/2000/svg" xmlns:xlink="http://www.w3.org/1999/xlink">
    <title>wind</title>
    <g id="Page-1" stroke="none" stroke-width="1" fill="none" fill-rule="evenodd" stroke-linecap="round" stroke-linejoin="round">
        <g id="wind" transform="translate(30.000000, 30.000000)" stroke-width="60">
            <path d="M317.7,462.3 C336.883003,481.597004 366.649976,485.569485 390.222002,471.978253 C413.794027,458.387021 425.269196,430.635016 418.179236,404.365367 C411.089276,378.095718 387.209354,359.885759 360,359.999466 L0,359.999466" id="Path" stroke="#FF3860"></path>
            <path d="M471.9,111.9 C495.913313,87.9474245 533.013097,83.0917149 562.381905,100.057509 C591.750714,117.023303 606.07831,151.587617 597.325188,184.35571 C588.572065,217.123803 558.916978,239.939317 525,240 L0,240" id="Path" stroke="#FFDD57"></path>
            <path d="M227.7,17.7 C246.883003,-1.59700413 276.649976,-5.56948541 300.222002,8.02174697 C323.794027,21.6129793 335.269196,49.3649841 328.179236,75.6346329 C321.089276,101.904282 297.209354,120.114241 270,120.000534 L0,120.000534" id="Path" stroke="#48C774"></path>
        </g>
    </g>
</svg>